<?xml version="1.0" encoding="UTF-8" standalone="no"?>
<!-- Created with Inkscape (http://www.inkscape.org/) -->

<svg
   width="121mm"
   height="37mm"
   viewBox="0 0 121 37"
   version="1.1"
   id="svg5"
   inkscape:version="1.2.2 (b0a8486541, 2022-12-01, custom)"
   sodipodi:docname="logo.svg"
   xmlns:inkscape="http://www.inkscape.org/namespaces/inkscape"
   xmlns:sodipodi="http://sodipodi.sourceforge.net/DTD/sodipodi-0.dtd"
   xmlns:xlink="http://www.w3.org/1999/xlink"
   xmlns="http://www.w3.org/2000/svg"
   xmlns:svg="http://www.w3.org/2000/svg">
  <sodipodi:namedview
     id="namedview7"
     pagecolor="#ffffff"
     bordercolor="#000000"
     borderopacity="0.25"
     inkscape:showpageshadow="2"
     inkscape:pageopacity="0.0"
     inkscape:pagecheckerboard="0"
     inkscape:deskcolor="#d1d1d1"
     inkscape:document-units="mm"
     showgrid="false"
     inkscape:zoom="0.84"
     inkscape:cx="397.61905"
     inkscape:cy="307.14286"
     inkscape:window-width="1366"
     inkscape:window-height="719"
     inkscape:window-x="0"
     inkscape:window-y="25"
     inkscape:window-maximized="1"
     inkscape:current-layer="layer1" />
  <defs
     id="defs2">
    <linearGradient
       inkscape:collect="always"
       id="linearGradient2865">
      <stop
         style="stop-color:#0000ff;stop-opacity:1;"
         offset="0"
         id="stop2861" />
      <stop
         style="stop-color:#7a00fc;stop-opacity:1;"
         offset="1"
         id="stop2863" />
    </linearGradient>
    <linearGradient
       inkscape:collect="always"
       id="linearGradient2855">
      <stop
         style="stop-color:#9f00ff;stop-opacity:1;"
         offset="0"
         id="stop2851" />
      <stop
         style="stop-color:#0000ef;stop-opacity:1;"
         offset="1"
         id="stop2853" />
    </linearGradient>
    <rect
       x="50.123661"
       y="442.59238"
       width="352.45639"
       height="110.91983"
       id="rect790" />
    <linearGradient
       inkscape:collect="always"
       xlink:href="#linearGradient1139"
       id="linearGradient1141"
       x1="11.022791"
       y1="6.2689686"
       x2="16.977777"
       y2="6.2689686"
       gradientUnits="userSpaceOnUse"
       gradientTransform="matrix(0.69347792,0,0,0.6885143,0.70764547,9.402678)" />
    <linearGradient
       inkscape:collect="always"
       id="linearGradient1139">
      <stop
         style="stop-color:#ff0404;stop-opacity:1;"
         offset="0"
         id="stop1135" />
      <stop
         style="stop-color:#c19e00;stop-opacity:0.94465846;"
         offset="1"
         id="stop1137" />
    </linearGradient>
    <linearGradient
       inkscape:collect="always"
       xlink:href="#linearGradient2855"
       id="linearGradient2859"
       x1="50.915047"
       y1="450.06497"
       x2="136.35483"
       y2="450.06497"
       gradientUnits="userSpaceOnUse" />
    <linearGradient
       inkscape:collect="always"
       xlink:href="#linearGradient2865"
       id="linearGradient2867"
       x1="2.0946103"
       y1="17.357261"
       x2="15.964397"
       y2="17.357261"
       gradientUnits="userSpaceOnUse" />
  </defs>
  <g
     inkscape:label="Layer 1"
     inkscape:groupmode="layer"
     id="layer1">
    <text
       xml:space="preserve"
       transform="matrix(0.82865121,0,0,1.117114,-23.887255,-482.73505)"
       id="text788"
       style="white-space:pre;shape-inside:url(#rect790);display:inline;fill:url(#linearGradient2859);fill-opacity:1"><tspan
         x="50.123047"
         y="453.20898"
         id="tspan2893"><tspan
           style="font-weight:900;font-family:Nunito;-inkscape-font-specification:'Nunito Heavy'"
           id="tspan2891">Mary Holtz Art</tspan></tspan></text>
    <path
       d="m 3.4815486,23.93481 h 6.6712534 a 2.7704444,2.7660341 0 0 0 2.106094,-0.96724 l 3.53814,-4.121009 a 0.69347792,0.69237399 0 0 0 -0.306528,-1.107815 l -1.364765,-0.45418 a 2.1102534,2.106894 0 0 0 -1.957692,0.34825 L 9.9593447,19.396308 9.5314629,18.541228 A 2.7600423,2.7556486 0 0 0 7.0501971,17.011079 H 3.4815486 c -0.7648919,0 -1.3869383,0.621056 -1.3869383,1.38473 v 4.154244 c 0,0.763702 0.6220464,1.384757 1.3869383,1.384757 z m 0,-5.539001 h 3.5686485 c 0.5291306,0 1.0041649,0.292878 1.240633,0.765089 l 0.3099883,0.619668 h -3.038836 v 1.384757 h 4.1705919 a 0.69070406,0.6896045 0 0 0 0.3065017,-0.07615 l 0.0021,-6.5e-4 0.0026,-0.0014 h 0.0021 l 0.0013,-6.5e-4 h 0.0026 l 6.93e-4,-6.5e-4 c 0.0052,0.0021 0.0021,-6.49e-4 0.0021,-6.49e-4 0.0079,0 0.0014,-6.51e-4 0.0014,-6.51e-4 h 6.93e-4 l 0.0014,-6.48e-4 0.0021,-6.5e-4 0.0013,-6.5e-4 0.0013,-6.49e-4 0.0021,-6.51e-4 0.0013,-6.48e-4 c 0.0021,0 6.92e-4,-6.5e-4 0.0013,-6.5e-4 l 0.0021,-0.0014 0.0013,-6.51e-4 0.0013,-6.49e-4 0.0021,-6.49e-4 0.0013,-6.51e-4 h 6.92e-4 l 0.0013,-6.48e-4 h 6.93e-4 l 0.0014,-6.51e-4 0.0013,-6.49e-4 c 0.0052,-6.49e-4 0.0021,-6.49e-4 0.0021,-6.49e-4 l 0.0014,-6.51e-4 a 0.63453232,0.63352218 0 0 0 0.07627,-0.05391 l 2.875153,-2.296597 c 0.181637,-0.143926 0.432049,-0.188936 0.651874,-0.115663 l 0.38626,0.128749 -2.866137,3.339331 a 1.4070668,1.4048268 0 0 1 -1.054069,0.476193 H 3.4812342 Z m 8.3217354,-7.616096 h -0.01049 c -0.112962,0.0014 -0.697658,0.02696 -1.375165,0.488121 -0.6594982,-0.448659 -1.2302253,-0.484667 -1.3647621,-0.48744 l -0.020972,-6.82e-4 h -0.00262 c -0.555473,0 -1.0783662,0.216675 -1.4694744,0.607893 -0.3925236,0.392579 -0.6095709,0.913934 -0.6095709,1.469229 0,0.555269 0.2170204,1.076622 0.5970942,1.456745 l 2.367515,2.482865 a 0.69763883,0.69652818 0 0 0 1.0055532,-6.49e-4 l 2.355038,-2.470382 c 0.393206,-0.391899 0.609571,-0.913253 0.609571,-1.468522 0,-0.555295 -0.217021,-1.076649 -0.608863,-1.468522 a 2.0651773,2.0618896 0 0 0 -1.470157,-0.608628 z m 0.693495,2.077122 c 0,0.18475 -0.07207,0.358639 -0.21571,0.501964 L 10.41632,15.314761 8.5390668,13.346343 C 8.4080156,13.215501 8.3359384,13.04169 8.3359384,12.856835 c 0,-0.185011 0.072076,-0.358665 0.203915,-0.490213 A 0.67752796,0.67644937 0 0 1 9.0148868,12.16434 c 0.018345,6.82e-4 0.3481241,0.02094 0.7399396,0.335819 0.056089,0.04501 0.1129657,0.0963 0.1714152,0.153609 l 0.4902874,0.489507 0.490288,-0.489507 c 0.05818,-0.05757 0.115063,-0.108599 0.171152,-0.153609 0.366838,-0.294264 0.676826,-0.330953 0.729535,-0.335113 a 0.68446273,0.68337312 0 0 1 0.48612,0.202282 c 0.131051,0.130842 0.203129,0.304627 0.203129,0.489507 z"
       id="path287"
       style="fill:url(#linearGradient2867);fill-opacity:1;stroke-width:0.692926" />
    <path
       style="fill:url(#linearGradient1141);fill-opacity:1;stroke-width:0"
       d="M 9.445389,14.250814 C 8.4480127,13.210405 8.3524769,13.087448 8.3517164,12.843097 c -5.763e-4,-0.182679 0.1391765,-0.435983 0.3028848,-0.548479 0.1187325,-0.08145 0.1588337,-0.09186 0.354441,-0.09134 0.3275484,0.001 0.5702025,0.138441 1.0428248,0.590922 l 0.364479,0.348858 0.368856,-0.353074 c 0.298481,-0.285728 0.417554,-0.37738 0.624117,-0.480508 0.233271,-0.11658 0.271747,-0.126469 0.447276,-0.1158 0.150709,0.01041 0.220428,0.03122 0.323618,0.102269 0.162765,0.112157 0.301155,0.365227 0.301155,0.55121 0,0.233943 -0.121878,0.390079 -1.108639,1.419975 -0.516524,0.53911 -0.946502,0.980192 -0.955545,0.980192 -0.0079,0 -0.4463334,-0.448473 -0.971795,-0.996587 z"
       id="path433" />
  </g>
</svg>
